<?xml version="1.0" standalone="no"?>
<!DOCTYPE svg PUBLIC "-//W3C//DTD SVG 20010904//EN"
 "http://www.w3.org/TR/2001/REC-SVG-20010904/DTD/svg10.dtd">
<svg version="1.0" xmlns="http://www.w3.org/2000/svg"
 width="300.000000pt" height="300.000000pt" viewBox="0 0 300.000000 300.000000"
 preserveAspectRatio="xMidYMid meet">
<metadata>
Created by potrace 1.10, written by Peter Selinger 2001-2011
</metadata>
<g transform="translate(0.000000,300.000000) scale(0.100000,-0.100000)"
fill="#000000" stroke="none">
<path d="M1589 2567 c-94 -35 -134 -138 -89 -227 50 -97 168 -118 250 -44 79
72 68 201 -23 258 -34 21 -98 27 -138 13z m127 -81 c39 -39 44 -77 18 -127
-19 -37 -74 -63 -115 -54 -45 10 -79 58 -79 112 0 37 5 50 31 74 46 42 99 41
145 -5z"/>
<path d="M1095 2521 c-16 -10 -39 -28 -50 -41 -19 -21 -20 -40 -25 -554 -5
-575 -3 -556 -61 -590 -45 -27 -86 -21 -125 18 l-34 34 0 326 0 326 -40 44
c-64 69 -146 78 -221 25 -60 -42 -59 -36 -59 -635 l0 -547 23 -36 c14 -21 45
-46 72 -60 44 -22 50 -22 89 -10 22 7 58 30 80 49 36 34 39 41 45 108 6 59 11
77 33 98 44 45 133 36 166 -17 8 -12 12 -104 13 -286 2 -280 6 -305 48 -350
65 -69 197 -44 232 45 5 13 9 77 9 143 0 131 12 171 52 185 34 12 50 11 80 -3
32 -15 43 -34 51 -86 23 -152 227 -190 305 -58 l27 46 2 230 2 230 31 28 c52
46 121 32 155 -33 8 -16 14 -53 14 -89 -1 -74 22 -117 81 -150 67 -38 142 -18
194 53 20 26 21 43 26 426 5 366 6 401 23 417 15 15 41 19 172 23 146 5 155 6
181 30 39 36 65 101 57 140 -3 18 -23 50 -43 71 l-37 39 -566 -2 -565 -3 -27
-25 c-42 -39 -58 -78 -52 -125 6 -54 31 -89 82 -115 37 -18 57 -19 225 -16
201 4 226 -1 248 -49 7 -16 12 -76 12 -152 l0 -126 -36 -33 c-19 -19 -42 -35
-50 -35 -8 -1 -20 -2 -26 -3 -51 -7 -104 42 -116 106 -18 95 -69 148 -151 156
-64 6 -92 -2 -131 -34 -56 -47 -60 -72 -60 -336 l0 -239 -25 -24 c-29 -30 -51
-31 -85 -5 l-25 19 -2 687 -2 686 -26 34 c-49 64 -129 83 -190 45z m138 -72
l27 -29 0 -674 0 -673 23 -34 c53 -79 154 -78 201 3 15 25 17 59 16 264 -1
223 0 237 21 274 32 57 80 73 148 49 35 -12 53 -40 70 -114 29 -119 136 -173
241 -120 76 39 90 76 90 241 0 156 -10 186 -72 224 -30 18 -51 20 -236 20
l-204 0 -29 29 c-37 37 -38 77 -4 114 14 15 29 27 33 27 4 0 249 2 544 4 519
4 537 3 557 -15 45 -42 39 -108 -12 -139 -28 -17 -50 -20 -165 -20 -151 0
-178 -9 -206 -67 -14 -29 -16 -85 -16 -419 l0 -386 -29 -28 c-36 -36 -72 -46
-107 -28 -47 22 -63 56 -65 133 -4 114 -55 175 -148 177 -61 2 -108 -25 -138
-78 -22 -37 -23 -50 -23 -266 l0 -227 -34 -35 c-28 -30 -40 -36 -75 -36 -69 0
-105 33 -117 107 -16 104 -128 164 -212 113 -62 -38 -72 -69 -72 -218 0 -128
-1 -134 -25 -157 -34 -35 -96 -35 -130 0 -14 13 -26 32 -26 42 -1 10 -1 133 1
274 2 188 -1 262 -10 280 -32 62 -92 99 -159 99 -87 -1 -165 -93 -159 -186 2
-34 -21 -78 -49 -93 -34 -17 -92 -6 -124 25 l-29 28 2 547 3 547 23 25 c31 33
81 42 126 23 64 -27 66 -39 66 -383 0 -273 2 -312 18 -343 26 -53 74 -80 140
-80 67 0 114 31 143 94 17 38 19 74 19 546 0 558 -2 537 64 566 39 17 64 10
99 -27z"/>
</g>
</svg>
